<mxfile host="Electron" agent="Mozilla/5.0 (Windows NT 10.0; Win64; x64) AppleWebKit/537.36 (KHTML, like Gecko) draw.io/26.1.1 Chrome/132.0.6834.210 Electron/34.3.3 Safari/537.36" version="26.1.1">
  <diagram name="Page-1" id="3Kqtb8K1jZWurti1MGTt">
    <mxGraphModel dx="1900" dy="1769" grid="1" gridSize="10" guides="1" tooltips="1" connect="1" arrows="1" fold="1" page="1" pageScale="1" pageWidth="850" pageHeight="1100" math="0" shadow="0">
      <root>
        <mxCell id="0" />
        <mxCell id="1" parent="0" />
        <mxCell id="w6X_gNNy5YEPE2VcOVvU-1" value="" style="rounded=0;whiteSpace=wrap;html=1;fontSize=20;gradientColor=default;fillColor=none;dashed=1;" parent="1" vertex="1">
          <mxGeometry x="-112" y="-68.12" width="130" height="407.5" as="geometry" />
        </mxCell>
        <mxCell id="w6X_gNNy5YEPE2VcOVvU-13" value="" style="rounded=0;whiteSpace=wrap;html=1;" parent="1" vertex="1">
          <mxGeometry x="60" y="-105.32" width="555" height="490" as="geometry" />
        </mxCell>
        <mxCell id="w6X_gNNy5YEPE2VcOVvU-15" value="&lt;font style=&quot;font-size: 14px;&quot;&gt;&lt;b&gt;SOURCES&lt;/b&gt;&lt;/font&gt;" style="rounded=1;whiteSpace=wrap;html=1;gradientColor=none;fillColor=default;" parent="1" vertex="1">
          <mxGeometry x="-82.46000000000001" y="-78.75" width="80" height="20" as="geometry" />
        </mxCell>
        <mxCell id="w6X_gNNy5YEPE2VcOVvU-19" value="&lt;font&gt;&lt;b&gt;DATA WARE HOUSE&lt;/b&gt;&lt;/font&gt;" style="rounded=1;whiteSpace=wrap;html=1;" parent="1" vertex="1">
          <mxGeometry x="270" y="-120" width="120" height="30" as="geometry" />
        </mxCell>
        <mxCell id="w6X_gNNy5YEPE2VcOVvU-21" value="" style="rounded=0;whiteSpace=wrap;html=1;fontSize=20;gradientColor=default;fillColor=none;dashed=1;" parent="1" vertex="1">
          <mxGeometry x="700" y="-78.75" width="130" height="405" as="geometry" />
        </mxCell>
        <mxCell id="w6X_gNNy5YEPE2VcOVvU-22" value="&lt;span style=&quot;font-size: 14px;&quot;&gt;&lt;b&gt;CONSUME&lt;/b&gt;&lt;/span&gt;" style="rounded=1;whiteSpace=wrap;html=1;gradientColor=none;fillColor=default;" parent="1" vertex="1">
          <mxGeometry x="725" y="-87.5" width="80" height="20" as="geometry" />
        </mxCell>
        <mxCell id="w6X_gNNy5YEPE2VcOVvU-23" style="edgeStyle=orthogonalEdgeStyle;rounded=0;orthogonalLoop=1;jettySize=auto;html=1;exitX=0.5;exitY=1;exitDx=0;exitDy=0;" parent="1" source="w6X_gNNy5YEPE2VcOVvU-22" target="w6X_gNNy5YEPE2VcOVvU-22" edge="1">
          <mxGeometry relative="1" as="geometry" />
        </mxCell>
        <mxCell id="w6X_gNNy5YEPE2VcOVvU-24" value="&lt;div&gt;&lt;br&gt;&lt;/div&gt;&lt;div&gt;&lt;br&gt;&lt;/div&gt;&lt;div&gt;&lt;br&gt;&lt;/div&gt;&lt;div&gt;&lt;br&gt;&lt;/div&gt;&lt;div&gt;&lt;br&gt;&lt;/div&gt;&lt;div&gt;&lt;br&gt;&lt;/div&gt;&lt;div&gt;&lt;br&gt;&lt;/div&gt;&lt;div&gt;&lt;br&gt;&lt;/div&gt;&lt;div&gt;&lt;br&gt;&lt;/div&gt;&lt;div&gt;&lt;b style=&quot;color: light-dark(rgb(0, 0, 0), rgb(255, 255, 255)); text-wrap-mode: nowrap; font-size: 10px; background-color: rgb(255, 255, 255);&quot;&gt;OBJECT TYPE: &lt;/b&gt;&lt;span style=&quot;color: light-dark(rgb(0, 0, 0), rgb(255, 255, 255)); text-wrap-mode: nowrap; background-color: rgb(255, 255, 255);&quot;&gt;&lt;font style=&quot;font-size: 11px;&quot;&gt;Tables&lt;/font&gt;&lt;/span&gt;&lt;/div&gt;&lt;div&gt;&lt;span style=&quot;color: light-dark(rgb(0, 0, 0), rgb(255, 255, 255)); text-wrap-mode: nowrap; font-size: 10px; background-color: rgb(255, 255, 255);&quot;&gt;&lt;br&gt;&lt;/span&gt;&lt;/div&gt;&lt;div&gt;&lt;b&gt;&lt;font style=&quot;font-size: 11px;&quot;&gt;LOAD:&amp;nbsp;&lt;/font&gt;&lt;/b&gt;&lt;/div&gt;&lt;div style=&quot;text-align: left;&quot;&gt;&lt;font style=&quot;font-size: 11px;&quot;&gt;Batch Processing&lt;/font&gt;&lt;/div&gt;&lt;div style=&quot;text-align: left;&quot;&gt;&lt;font style=&quot;font-size: 11px;&quot;&gt;Full Load(Trunc and Insert&lt;/font&gt;&lt;/div&gt;&lt;div style=&quot;text-align: left;&quot;&gt;&lt;font style=&quot;font-size: 11px;&quot;&gt;&lt;br&gt;&lt;/font&gt;&lt;/div&gt;&lt;div style=&quot;text-align: left;&quot;&gt;&lt;font style=&quot;font-size: 11px;&quot;&gt;No Transformation&amp;nbsp;&lt;/font&gt;&lt;/div&gt;&lt;div style=&quot;text-align: left;&quot;&gt;&lt;font style=&quot;font-size: 11px;&quot;&gt;Data Model: None(as it is)&lt;/font&gt;&lt;/div&gt;" style="rounded=0;whiteSpace=wrap;html=1;fillColor=none;strokeColor=#d79b00;" parent="1" vertex="1">
          <mxGeometry x="70" y="-27.5" width="140" height="340.63" as="geometry" />
        </mxCell>
        <mxCell id="w6X_gNNy5YEPE2VcOVvU-27" value="&lt;span style=&quot;font-size: 10px;&quot;&gt;BRONZE LAYER&lt;/span&gt;" style="rounded=1;whiteSpace=wrap;html=1;fillColor=#ffe6cc;strokeColor=#d79b00;align=center;verticalAlign=middle;" parent="1" vertex="1">
          <mxGeometry x="100" y="-48.74" width="80" height="30" as="geometry" />
        </mxCell>
        <mxCell id="w6X_gNNy5YEPE2VcOVvU-30" value="&lt;div&gt;&lt;br&gt;&lt;/div&gt;&lt;div&gt;&lt;br&gt;&lt;/div&gt;&lt;div&gt;&lt;br&gt;&lt;/div&gt;&lt;div&gt;&lt;br&gt;&lt;/div&gt;&lt;div&gt;&lt;br&gt;&lt;/div&gt;&lt;div&gt;&lt;br&gt;&lt;/div&gt;&lt;div&gt;&lt;br&gt;&lt;/div&gt;&lt;div&gt;&lt;br&gt;&lt;/div&gt;&lt;div&gt;&lt;br&gt;&lt;/div&gt;&lt;div&gt;&lt;br&gt;&lt;/div&gt;&lt;div&gt;&lt;b style=&quot;background-color: transparent; color: rgb(0, 0, 0);&quot;&gt;&lt;font style=&quot;font-size: 11px;&quot;&gt;&lt;br&gt;&lt;/font&gt;&lt;/b&gt;&lt;/div&gt;&lt;div&gt;&lt;b style=&quot;background-color: transparent; color: rgb(0, 0, 0);&quot;&gt;&lt;font style=&quot;font-size: 11px;&quot;&gt;&lt;b style=&quot;text-wrap-mode: nowrap; color: light-dark(rgb(0, 0, 0), rgb(255, 255, 255)); font-size: 10px; background-color: rgb(255, 255, 255);&quot;&gt;&lt;br&gt;&lt;/b&gt;&lt;/font&gt;&lt;/b&gt;&lt;/div&gt;&lt;div&gt;&lt;b style=&quot;background-color: transparent; color: rgb(0, 0, 0);&quot;&gt;&lt;font style=&quot;font-size: 11px;&quot;&gt;&lt;b style=&quot;text-wrap-mode: nowrap; color: light-dark(rgb(0, 0, 0), rgb(255, 255, 255)); font-size: 10px; background-color: rgb(255, 255, 255);&quot;&gt;OBJECT TYPE:&amp;nbsp;&lt;/b&gt;&lt;span style=&quot;font-size: 12px; font-weight: normal; text-wrap-mode: nowrap; color: light-dark(rgb(0, 0, 0), rgb(255, 255, 255)); background-color: rgb(255, 255, 255);&quot;&gt;&lt;font style=&quot;font-size: 11px;&quot;&gt;Tables&lt;/font&gt;&lt;/span&gt;&lt;/font&gt;&lt;/b&gt;&lt;/div&gt;&lt;div&gt;&lt;b style=&quot;background-color: transparent; color: rgb(0, 0, 0);&quot;&gt;&lt;font style=&quot;font-size: 11px;&quot;&gt;LOAD:&amp;nbsp;&lt;/font&gt;&lt;/b&gt;&lt;/div&gt;&lt;div&gt;&lt;div style=&quot;color: rgb(0, 0, 0); text-align: left;&quot;&gt;&lt;font style=&quot;font-size: 11px;&quot;&gt;Batch Processing&lt;/font&gt;&lt;/div&gt;&lt;div style=&quot;color: rgb(0, 0, 0); text-align: left;&quot;&gt;&lt;font style=&quot;font-size: 11px;&quot;&gt;Full Load(Trunc and Insert&lt;/font&gt;&lt;/div&gt;&lt;div style=&quot;color: rgb(0, 0, 0); text-align: left;&quot;&gt;&lt;span style=&quot;font-size: 11px; background-color: transparent;&quot;&gt;&lt;b&gt;Transformation&lt;/b&gt;&lt;/span&gt;&lt;/div&gt;&lt;div style=&quot;color: rgb(0, 0, 0); text-align: left;&quot;&gt;&lt;span style=&quot;font-size: 11px; background-color: transparent;&quot;&gt;1. Data Cleansing&amp;nbsp;&lt;/span&gt;&lt;/div&gt;&lt;div style=&quot;color: rgb(0, 0, 0); text-align: left;&quot;&gt;&lt;span style=&quot;font-size: 11px;&quot;&gt;1. Data Standrization&lt;/span&gt;&lt;/div&gt;&lt;div style=&quot;color: rgb(0, 0, 0); text-align: left;&quot;&gt;&lt;span style=&quot;font-size: 11px;&quot;&gt;1. Data Normalization&lt;/span&gt;&lt;/div&gt;&lt;div style=&quot;color: rgb(0, 0, 0); text-align: left;&quot;&gt;&lt;span style=&quot;font-size: 11px;&quot;&gt;1. Dervied Columns&lt;/span&gt;&lt;/div&gt;&lt;div style=&quot;color: rgb(0, 0, 0); text-align: left;&quot;&gt;&lt;span style=&quot;font-size: 11px;&quot;&gt;1. Data Enrichment&lt;/span&gt;&lt;/div&gt;&lt;div style=&quot;color: rgb(0, 0, 0); text-align: left;&quot;&gt;&lt;span style=&quot;font-size: 11px; background-color: transparent;&quot;&gt;&lt;b&gt;Data Model&lt;/b&gt;: None(as it is)&lt;/span&gt;&lt;/div&gt;&lt;/div&gt;" style="rounded=0;whiteSpace=wrap;html=1;fillColor=none;strokeColor=#666666;fontColor=#333333;" parent="1" vertex="1">
          <mxGeometry x="250" y="-30" width="160" height="350.01" as="geometry" />
        </mxCell>
        <mxCell id="w6X_gNNy5YEPE2VcOVvU-31" value="&lt;div&gt;&lt;br&gt;&lt;/div&gt;&lt;div&gt;&lt;br&gt;&lt;/div&gt;&lt;div&gt;&lt;br&gt;&lt;/div&gt;&lt;div&gt;&lt;br&gt;&lt;/div&gt;&lt;div&gt;&lt;br&gt;&lt;/div&gt;&lt;div&gt;&lt;br&gt;&lt;/div&gt;&lt;div&gt;&lt;br&gt;&lt;/div&gt;&lt;div&gt;&lt;br&gt;&lt;/div&gt;&lt;div&gt;&lt;br&gt;&lt;/div&gt;&lt;div&gt;&lt;br&gt;&lt;/div&gt;&lt;div&gt;&lt;br&gt;&lt;/div&gt;&lt;div&gt;&lt;br&gt;&lt;/div&gt;&lt;div&gt;&lt;br&gt;&lt;/div&gt;&lt;div&gt;&lt;span style=&quot;background-color: transparent; color: rgb(0, 0, 0);&quot;&gt;&lt;font style=&quot;font-size: 11px;&quot;&gt;&lt;b style=&quot;font-weight: bold; text-wrap-mode: nowrap; color: light-dark(rgb(0, 0, 0), rgb(255, 255, 255)); font-size: 10px; background-color: rgb(255, 255, 255);&quot;&gt;OBJECT TYPE: &lt;/b&gt;&lt;span style=&quot;text-wrap-mode: nowrap; color: light-dark(rgb(0, 0, 0), rgb(255, 255, 255)); font-size: 10px; background-color: rgb(255, 255, 255);&quot;&gt;View&lt;/span&gt;&lt;/font&gt;&lt;/span&gt;&lt;/div&gt;&lt;div&gt;&lt;div style=&quot;color: rgb(51, 51, 51);&quot;&gt;&lt;b style=&quot;background-color: transparent; color: rgb(0, 0, 0);&quot;&gt;&lt;font style=&quot;font-size: 11px;&quot;&gt;No LOAD:&amp;nbsp;&lt;/font&gt;&lt;/b&gt;&lt;/div&gt;&lt;div style=&quot;color: rgb(51, 51, 51);&quot;&gt;&lt;div style=&quot;color: rgb(0, 0, 0); text-align: left;&quot;&gt;&lt;span style=&quot;font-size: 11px; background-color: transparent;&quot;&gt;&lt;b&gt;Transformation&lt;/b&gt;&lt;/span&gt;&lt;/div&gt;&lt;div style=&quot;color: rgb(0, 0, 0); text-align: left;&quot;&gt;&lt;span style=&quot;font-size: 11px; background-color: transparent;&quot;&gt;1. Data Integration&lt;/span&gt;&lt;/div&gt;&lt;div style=&quot;color: rgb(0, 0, 0); text-align: left;&quot;&gt;&lt;span style=&quot;font-size: 11px;&quot;&gt;1. Aggregation&lt;/span&gt;&lt;/div&gt;&lt;div style=&quot;color: rgb(0, 0, 0); text-align: left;&quot;&gt;&lt;span style=&quot;font-size: 11px;&quot;&gt;1. Bussiness Logic&lt;/span&gt;&lt;/div&gt;&lt;div style=&quot;color: rgb(0, 0, 0); text-align: left;&quot;&gt;&lt;span style=&quot;font-size: 11px; background-color: transparent;&quot;&gt;&lt;b&gt;Data Model&lt;/b&gt;:&lt;/span&gt;&lt;/div&gt;&lt;div style=&quot;color: rgb(0, 0, 0); text-align: left;&quot;&gt;&lt;span style=&quot;font-size: 11px; background-color: transparent;&quot;&gt;1. Star Schema&lt;/span&gt;&lt;/div&gt;&lt;div style=&quot;color: rgb(0, 0, 0); text-align: left;&quot;&gt;&lt;span style=&quot;font-size: 11px; background-color: transparent;&quot;&gt;2.Flat Table&lt;/span&gt;&lt;/div&gt;&lt;div style=&quot;color: rgb(0, 0, 0); text-align: left;&quot;&gt;&lt;span style=&quot;font-size: 11px; background-color: transparent;&quot;&gt;3. Aggregated Table&lt;/span&gt;&lt;/div&gt;&lt;/div&gt;&lt;/div&gt;" style="rounded=0;whiteSpace=wrap;html=1;fillColor=none;strokeColor=#d6b656;" parent="1" vertex="1">
          <mxGeometry x="460" y="-40" width="140" height="350" as="geometry" />
        </mxCell>
        <mxCell id="w6X_gNNy5YEPE2VcOVvU-32" value="&lt;span style=&quot;font-size: 10px;&quot;&gt;SILVER LAYER&lt;/span&gt;" style="rounded=1;whiteSpace=wrap;html=1;fillColor=#f5f5f5;strokeColor=#666666;align=center;verticalAlign=middle;fontColor=#333333;" parent="1" vertex="1">
          <mxGeometry x="285" y="-48.74" width="80" height="30" as="geometry" />
        </mxCell>
        <mxCell id="w6X_gNNy5YEPE2VcOVvU-35" value="&lt;span style=&quot;font-size: 10px;&quot;&gt;GOLD LAYER&lt;/span&gt;" style="rounded=1;whiteSpace=wrap;html=1;fillColor=#fff2cc;strokeColor=#d6b656;align=center;verticalAlign=middle;" parent="1" vertex="1">
          <mxGeometry x="490" y="-57.5" width="80" height="30" as="geometry" />
        </mxCell>
        <mxCell id="w6X_gNNy5YEPE2VcOVvU-38" value="CRM" style="image;aspect=fixed;html=1;points=[];align=center;fontSize=12;image=img/lib/azure2/general/Folder_Blank.svg;" parent="1" vertex="1">
          <mxGeometry x="-70.97999999999999" y="-10" width="49.28" height="40" as="geometry" />
        </mxCell>
        <mxCell id="w6X_gNNy5YEPE2VcOVvU-39" value="" style="image;aspect=fixed;html=1;points=[];align=center;fontSize=12;image=img/lib/azure2/general/File.svg;" parent="1" vertex="1">
          <mxGeometry x="-37.43" y="10" width="20.35" height="25.07" as="geometry" />
        </mxCell>
        <mxCell id="w6X_gNNy5YEPE2VcOVvU-43" value="ERP" style="image;aspect=fixed;html=1;points=[];align=center;fontSize=12;image=img/lib/azure2/general/Folder_Blank.svg;" parent="1" vertex="1">
          <mxGeometry x="-72.83" y="93.75" width="56.98" height="46.25" as="geometry" />
        </mxCell>
        <mxCell id="w6X_gNNy5YEPE2VcOVvU-45" value="" style="image;aspect=fixed;html=1;points=[];align=center;fontSize=12;image=img/lib/azure2/general/File.svg;" parent="1" vertex="1">
          <mxGeometry x="-37.43" y="120" width="22.32" height="27.5" as="geometry" />
        </mxCell>
        <mxCell id="w6X_gNNy5YEPE2VcOVvU-50" value="&lt;font style=&quot;font-size: 10px;&quot;&gt;&lt;b style=&quot;&quot;&gt;OBJECT TYPE: CSV FILE&lt;/b&gt;&lt;/font&gt;&lt;div&gt;&lt;span style=&quot;font-size: 10px;&quot;&gt;&lt;b&gt;&lt;br&gt;&lt;/b&gt;&lt;/span&gt;&lt;div&gt;&lt;font style=&quot;font-size: 10px;&quot;&gt;&lt;b style=&quot;&quot;&gt;INRETFACE&lt;/b&gt;: Files in folder&lt;/font&gt;&lt;/div&gt;&lt;/div&gt;" style="endArrow=none;html=1;rounded=0;" parent="1" edge="1">
          <mxGeometry x="0.6571" y="50" width="50" height="50" relative="1" as="geometry">
            <mxPoint x="8" y="180" as="sourcePoint" />
            <mxPoint x="-62" y="180" as="targetPoint" />
            <mxPoint as="offset" />
          </mxGeometry>
        </mxCell>
        <mxCell id="w6X_gNNy5YEPE2VcOVvU-58" value="" style="html=1;verticalLabelPosition=bottom;align=center;labelBackgroundColor=#ffffff;verticalAlign=top;strokeWidth=2;strokeColor=#666666;shadow=0;dashed=0;shape=mxgraph.ios7.icons.data;fillColor=#f5f5f5;fontColor=#333333;" parent="1" vertex="1">
          <mxGeometry x="285" y="-13.120000000000001" width="80" height="106.87" as="geometry" />
        </mxCell>
        <mxCell id="w6X_gNNy5YEPE2VcOVvU-59" value="" style="html=1;verticalLabelPosition=bottom;align=center;labelBackgroundColor=#ffffff;verticalAlign=top;strokeWidth=2;strokeColor=#d6b656;shadow=0;dashed=0;shape=mxgraph.ios7.icons.data;fillColor=#fff2cc;" parent="1" vertex="1">
          <mxGeometry x="490" y="-13.120000000000001" width="80" height="100" as="geometry" />
        </mxCell>
        <mxCell id="w6X_gNNy5YEPE2VcOVvU-60" value="" style="html=1;verticalLabelPosition=bottom;align=center;labelBackgroundColor=#ffffff;verticalAlign=top;strokeWidth=2;strokeColor=#d79b00;shadow=0;dashed=0;shape=mxgraph.ios7.icons.data;fillColor=#ffe6cc;" parent="1" vertex="1">
          <mxGeometry x="105" y="-10.000000000000009" width="80" height="106.87" as="geometry" />
        </mxCell>
        <mxCell id="w6X_gNNy5YEPE2VcOVvU-61" value="" style="shape=singleArrow;whiteSpace=wrap;html=1;fillColor=#b1ddf0;strokeColor=#10739e;" parent="1" vertex="1">
          <mxGeometry x="1.7763568394002505e-15" y="10" width="79.38" height="41.25" as="geometry" />
        </mxCell>
        <mxCell id="w6X_gNNy5YEPE2VcOVvU-63" value="" style="shape=singleArrow;whiteSpace=wrap;html=1;fillColor=#b1ddf0;strokeColor=#10739e;" parent="1" vertex="1">
          <mxGeometry x="190.62" y="9.999999999999996" width="79.38" height="41.25" as="geometry" />
        </mxCell>
        <mxCell id="w6X_gNNy5YEPE2VcOVvU-64" value="" style="shape=singleArrow;whiteSpace=wrap;html=1;fillColor=#b1ddf0;strokeColor=#10739e;" parent="1" vertex="1">
          <mxGeometry x="377.5" y="10" width="95" height="40" as="geometry" />
        </mxCell>
        <mxCell id="w6X_gNNy5YEPE2VcOVvU-65" value="" style="shape=singleArrow;whiteSpace=wrap;html=1;fillColor=#b1ddf0;strokeColor=#10739e;" parent="1" vertex="1">
          <mxGeometry x="590" y="9.38" width="110" height="40.62" as="geometry" />
        </mxCell>
        <mxCell id="w6X_gNNy5YEPE2VcOVvU-66" value="&lt;font style=&quot;font-size: 11px;&quot;&gt;RAW DATA&lt;/font&gt;" style="text;html=1;align=center;verticalAlign=middle;whiteSpace=wrap;rounded=0;" parent="1" vertex="1">
          <mxGeometry x="125" y="90" width="60" height="30" as="geometry" />
        </mxCell>
        <mxCell id="w6X_gNNy5YEPE2VcOVvU-67" value="Cleaned,Standarized data&lt;div&gt;&lt;br&gt;&lt;/div&gt;" style="text;html=1;align=center;verticalAlign=middle;whiteSpace=wrap;rounded=0;" parent="1" vertex="1">
          <mxGeometry x="300" y="109" width="60" height="30" as="geometry" />
        </mxCell>
        <mxCell id="w6X_gNNy5YEPE2VcOVvU-68" value="&lt;font style=&quot;font-size: 10px;&quot;&gt;B&lt;font style=&quot;&quot;&gt;ussiness-Ready D&lt;/font&gt;ata&lt;/font&gt;" style="text;html=1;align=center;verticalAlign=middle;whiteSpace=wrap;rounded=0;" parent="1" vertex="1">
          <mxGeometry x="500" y="102" width="60" height="30" as="geometry" />
        </mxCell>
        <mxCell id="w6X_gNNy5YEPE2VcOVvU-72" value="" style="endArrow=none;html=1;rounded=0;fillColor=#fff2cc;strokeColor=#d6b656;" parent="1" edge="1">
          <mxGeometry width="50" height="50" relative="1" as="geometry">
            <mxPoint x="495" y="139" as="sourcePoint" />
            <mxPoint x="565" y="139" as="targetPoint" />
            <Array as="points">
              <mxPoint x="525" y="139" />
            </Array>
          </mxGeometry>
        </mxCell>
        <mxCell id="w6X_gNNy5YEPE2VcOVvU-75" value="" style="endArrow=none;html=1;rounded=0;fillColor=#ffe6cc;strokeColor=#d79b00;" parent="1" edge="1">
          <mxGeometry width="50" height="50" relative="1" as="geometry">
            <mxPoint x="100" y="133.25" as="sourcePoint" />
            <mxPoint x="170" y="133.25" as="targetPoint" />
            <Array as="points">
              <mxPoint x="130" y="133.25" />
            </Array>
          </mxGeometry>
        </mxCell>
        <mxCell id="w6X_gNNy5YEPE2VcOVvU-76" value="" style="endArrow=none;html=1;rounded=0;fillColor=#f5f5f5;strokeColor=#666666;" parent="1" edge="1">
          <mxGeometry width="50" height="50" relative="1" as="geometry">
            <mxPoint x="290" y="140" as="sourcePoint" />
            <mxPoint x="360" y="140" as="targetPoint" />
            <Array as="points">
              <mxPoint x="320" y="140" />
            </Array>
          </mxGeometry>
        </mxCell>
        <mxCell id="w6X_gNNy5YEPE2VcOVvU-78" value="BI" style="image;aspect=fixed;html=1;points=[];align=center;fontSize=12;image=img/lib/azure2/power_platform/PowerBI.svg;" parent="1" vertex="1">
          <mxGeometry x="742.76" y="-9.999999999999998" width="44.06" height="58.74" as="geometry" />
        </mxCell>
        <mxCell id="w6X_gNNy5YEPE2VcOVvU-80" value="&lt;div&gt;&lt;br&gt;&lt;/div&gt;&lt;div&gt;&lt;br&gt;&lt;/div&gt;&lt;div&gt;&lt;br&gt;&lt;/div&gt;&lt;div&gt;&lt;br&gt;&lt;/div&gt;&lt;div&gt;&lt;br&gt;&lt;/div&gt;&lt;div&gt;&lt;br&gt;&lt;/div&gt;&lt;div&gt;&lt;br&gt;&lt;/div&gt;&lt;div&gt;&lt;br&gt;&lt;/div&gt;&lt;div&gt;&lt;br&gt;&lt;/div&gt;&lt;div&gt;&lt;br&gt;&lt;/div&gt;MACHINE LEARNING&lt;div&gt;&lt;br&gt;&lt;/div&gt;" style="points=[];aspect=fixed;html=1;align=center;shadow=0;dashed=0;fillColor=#FF6A00;strokeColor=none;shape=mxgraph.alibaba_cloud.machine_learning;" parent="1" vertex="1">
          <mxGeometry x="730" y="160" width="69.58" height="70" as="geometry" />
        </mxCell>
        <mxCell id="w6X_gNNy5YEPE2VcOVvU-82" value="" style="sketch=0;pointerEvents=1;shadow=0;dashed=0;html=1;strokeColor=none;fillColor=#DF8C42;labelPosition=center;verticalLabelPosition=bottom;verticalAlign=top;align=center;outlineConnect=0;shape=mxgraph.veeam2.microsoft_sql;" parent="1" vertex="1">
          <mxGeometry x="55" y="-125.32" width="50" height="20" as="geometry" />
        </mxCell>
        <mxCell id="w6X_gNNy5YEPE2VcOVvU-85" value="&lt;font style=&quot;font-size: 10px;&quot;&gt;MICROSOFT SQL SERVER&lt;/font&gt;&lt;div&gt;&lt;br&gt;&lt;/div&gt;" style="text;html=1;align=center;verticalAlign=middle;resizable=0;points=[];autosize=1;strokeColor=none;fillColor=none;" parent="1" vertex="1">
          <mxGeometry x="30" y="-145.32" width="150" height="40" as="geometry" />
        </mxCell>
      </root>
    </mxGraphModel>
  </diagram>
</mxfile>
